<svg id="Layer_1" data-name="Layer 1" xmlns="http://www.w3.org/2000/svg" xmlns:xlink="http://www.w3.org/1999/xlink" viewBox="0 0 1920 1080"><defs><style>.cls-1{fill:none;}.cls-2{clip-path:url(#clip-path);}.cls-3{fill:#ff9933;}.cls-4{clip-path:url(#clip-path-2);}.cls-5{fill:#ffc8eb;}.cls-6{fill:#ffa19a;}.cls-7{fill:#ff6851;}.cls-8{fill:#ff492e;}.cls-9{fill:#ff3853;}.cls-10{fill:#ffc3d7;}.cls-11{fill:#ffafa8;}</style><clipPath id="clip-path"><rect class="cls-1" width="1920" height="1080"/></clipPath><clipPath id="clip-path-2"><rect class="cls-1" x="29.24" y="-122.44" width="1858.38" height="1238.92"/></clipPath></defs><title>defrag</title><g class="cls-2"><rect class="cls-1" x="29.24" y="-122.44" width="1858.38" height="1238.92"/><rect class="cls-3" x="-1.57" y="-142.98" width="1920" height="1280"/><g class="cls-4"><path class="cls-5" d="M1268,990.92h0a8.28,8.28,0,0,1,0-11.68l357.43-357.43a8.28,8.28,0,0,1,11.68,0h0a8.28,8.28,0,0,1,0,11.68L1279.68,990.92A8.28,8.28,0,0,1,1268,990.92Z"/><path class="cls-6" d="M936.62,1174.41h0a17.4,17.4,0,0,1,0-24.53l70.21-70.21a17.4,17.4,0,0,1,24.53,0h0a17.4,17.4,0,0,1,0,24.53l-70.21,70.21A17.4,17.4,0,0,1,936.62,1174.41Z"/><path class="cls-7" d="M1455.78,1182.86h0a8.28,8.28,0,0,1,0-11.68l228.06-228.06a8.28,8.28,0,0,1,11.68,0h0a8.28,8.28,0,0,1,0,11.68l-228.06,228.06A8.28,8.28,0,0,1,1455.78,1182.86Z"/><path class="cls-7" d="M1131.18,908.59h0a8.28,8.28,0,0,1,0-11.68l228.06-228.06a8.28,8.28,0,0,1,11.68,0h0a8.28,8.28,0,0,1,0,11.68L1142.86,908.59A8.28,8.28,0,0,1,1131.18,908.59Z"/><path class="cls-7" d="M952.42,1078.76h0a8.28,8.28,0,0,1,0-11.68l51.45-51.45a8.28,8.28,0,0,1,11.68,0h0a8.28,8.28,0,0,1,0,11.68l-51.45,51.45A8.28,8.28,0,0,1,952.42,1078.76Z"/><path class="cls-6" d="M1062.82,1044.69h0a19.05,19.05,0,0,1,0-26.87L1231.61,849a19.05,19.05,0,0,1,26.87,0h0a19.05,19.05,0,0,1,0,26.87l-168.79,168.79A19.05,19.05,0,0,1,1062.82,1044.69Z"/><path class="cls-8" d="M1102.44,1182.77h0a49.21,49.21,0,0,1,0-69.39l260-260a49.21,49.21,0,0,1,69.39,0h0a49.21,49.21,0,0,1,0,69.39l-260,260A49.21,49.21,0,0,1,1102.44,1182.77Z"/><path class="cls-9" d="M1476.88,1052.24h0a31.91,31.91,0,0,1,0-45l98.68-98.68a31.91,31.91,0,0,1,45,0h0a31.91,31.91,0,0,1,0,45l-98.68,98.68A31.91,31.91,0,0,1,1476.88,1052.24Z"/><path class="cls-10" d="M1544.92,1184.86h0a31.91,31.91,0,0,1,0-45l70.64-70.64a31.91,31.91,0,0,1,45,0h0a31.91,31.91,0,0,1,0,45l-70.64,70.64A31.91,31.91,0,0,1,1544.92,1184.86Z"/><path class="cls-6" d="M1211.25,1158h0a49.21,49.21,0,0,1,0-69.39l260-260a49.21,49.21,0,0,1,69.39,0h0a49.21,49.21,0,0,1,0,69.39l-260,260A49.21,49.21,0,0,1,1211.25,1158Z"/><path class="cls-8" d="M1377.7,1045.17h0a17.4,17.4,0,0,1,0-24.53L1604,794.38a17.4,17.4,0,0,1,24.53,0h0a17.4,17.4,0,0,1,0,24.53l-226.26,226.26A17.4,17.4,0,0,1,1377.7,1045.17Z"/><path class="cls-11" d="M1591.93,937.14h0a12.25,12.25,0,0,1,0-17.28l50.93-50.93a12.25,12.25,0,0,1,17.28,0h0a12.25,12.25,0,0,1,0,17.28l-50.93,50.93A12.25,12.25,0,0,1,1591.93,937.14Z"/><path class="cls-11" d="M1099.66,1047.32h0a12.25,12.25,0,0,1,0-17.28l50.93-50.93a12.25,12.25,0,0,1,17.28,0h0a12.25,12.25,0,0,1,0,17.28l-50.93,50.93A12.25,12.25,0,0,1,1099.66,1047.32Z"/><path class="cls-8" d="M1314.74,857.77a7.11,7.11,0,0,0-10,0l-29.57,29.57a7.09,7.09,0,0,0,10,10l29.57-29.57A7.11,7.11,0,0,0,1314.74,857.77Z"/><path class="cls-11" d="M1341.85,1027.84h0a3.73,3.73,0,0,1,0-5.26l265.44-265.44a3.73,3.73,0,0,1,5.26,0h0a3.73,3.73,0,0,1,0,5.26l-265.44,265.44A3.73,3.73,0,0,1,1341.85,1027.84Z"/><path class="cls-11" d="M1365.3,789.71h0a3.73,3.73,0,0,1,0-5.26l198.36-198.36a3.73,3.73,0,0,1,5.26,0h0a3.73,3.73,0,0,1,0,5.26L1370.56,789.71A3.73,3.73,0,0,1,1365.3,789.71Z"/><path class="cls-11" d="M1409.6,1216.52h0a3.73,3.73,0,0,1,0-5.26L1675,945.82a3.73,3.73,0,0,1,5.26,0h0a3.73,3.73,0,0,1,0,5.26l-265.44,265.44A3.73,3.73,0,0,1,1409.6,1216.52Z"/><path class="cls-11" d="M982.32,1035h0a3.73,3.73,0,0,1,0-5.26l66-66a3.73,3.73,0,0,1,5.26,0h0a3.73,3.73,0,0,1,0,5.26l-66,66A3.73,3.73,0,0,1,982.32,1035Z"/><path class="cls-6" d="M1441.56,1064.57h0a3.73,3.73,0,0,1,0-5.26l66-66a3.73,3.73,0,0,1,5.26,0h0a3.73,3.73,0,0,1,0,5.26l-66,66A3.73,3.73,0,0,1,1441.56,1064.57Z"/><path class="cls-6" d="M1377.62,700.37h0a3.73,3.73,0,0,1,0-5.26l66-66a3.73,3.73,0,0,1,5.26,0h0a3.73,3.73,0,0,1,0,5.26l-66,66A3.73,3.73,0,0,1,1377.62,700.37Z"/><path class="cls-11" d="M1222.57,886.66h0a3.73,3.73,0,0,1,0-5.26l66-66a3.73,3.73,0,0,1,5.26,0h0a3.73,3.73,0,0,1,0,5.26l-66,66A3.73,3.73,0,0,1,1222.57,886.66Z"/><path class="cls-6" d="M1292.26,961.22a6.89,6.89,0,0,0-9.72,0l-28.66,28.66a6.87,6.87,0,0,0,9.72,9.72l28.66-28.66A6.89,6.89,0,0,0,1292.26,961.22Z"/><path class="cls-7" d="M1546.35,649.25a8.16,8.16,0,0,0-11.5,0l-8.16,8.16a8.13,8.13,0,0,0,11.5,11.5l8.16-8.16A8.16,8.16,0,0,0,1546.35,649.25Z"/><path class="cls-9" d="M1143.59,833.67a8.16,8.16,0,0,0-11.5,0l-8.16,8.16a8.13,8.13,0,0,0,11.5,11.5l8.16-8.16A8.16,8.16,0,0,0,1143.59,833.67Z"/><path class="cls-9" d="M1341.42,817.68h0a31.91,31.91,0,0,1,0-45L1440.1,674a31.91,31.91,0,0,1,45,0h0a31.91,31.91,0,0,1,0,45l-98.68,98.68A31.91,31.91,0,0,1,1341.42,817.68Z"/><path class="cls-6" d="M1346.42,842h0a3.73,3.73,0,0,1,0-5.26L1458.57,724.6a3.73,3.73,0,0,1,5.26,0h0a3.73,3.73,0,0,1,0,5.26L1351.67,842A3.73,3.73,0,0,1,1346.42,842Z"/><path class="cls-9" d="M1289.17,1077.32a8.16,8.16,0,0,0-11.5,0l-8.16,8.16A8.13,8.13,0,0,0,1281,1097l8.16-8.16A8.16,8.16,0,0,0,1289.17,1077.32Z"/><path class="cls-5" d="M413.67,25h0a8.28,8.28,0,0,1,0-11.68L771.1-344.1a8.28,8.28,0,0,1,11.68,0h0a8.28,8.28,0,0,1,0,11.68L425.35,25A8.28,8.28,0,0,1,413.67,25Z"/><path class="cls-5" d="M179.82,258.85h0a8.28,8.28,0,0,1,0-11.68l85.52-85.52a8.28,8.28,0,0,1,11.68,0h0a8.28,8.28,0,0,1,0,11.68L191.5,258.85A8.28,8.28,0,0,1,179.82,258.85Z"/><path class="cls-6" d="M82.28,208.49h0a17.4,17.4,0,0,1,0-24.53l70.21-70.21a17.4,17.4,0,0,1,24.53,0h0a17.4,17.4,0,0,1,0,24.53l-70.21,70.21A17.4,17.4,0,0,1,82.28,208.49Z"/><path class="cls-7" d="M601.44,216.94h0a8.28,8.28,0,0,1,0-11.68L829.51-22.81a8.28,8.28,0,0,1,11.68,0h0a8.28,8.28,0,0,1,0,11.68L613.12,216.94A8.28,8.28,0,0,1,601.44,216.94Z"/><path class="cls-7" d="M388.63,433.36h0a8.28,8.28,0,0,1,0-11.68L504.22,306.09a8.28,8.28,0,0,1,11.68,0h0a8.28,8.28,0,0,1,0,11.68L400.31,433.36A8.28,8.28,0,0,1,388.63,433.36Z"/><path class="cls-7" d="M98.09,112.84h0a8.28,8.28,0,0,1,0-11.68l51.45-51.45a8.28,8.28,0,0,1,11.68,0h0a8.28,8.28,0,0,1,0,11.68l-51.45,51.45A8.28,8.28,0,0,1,98.09,112.84Z"/><path class="cls-6" d="M208.49,78.77h0a19.05,19.05,0,0,1,0-26.87L377.28-116.88a19.05,19.05,0,0,1,26.87,0h0a19.05,19.05,0,0,1,0,26.87L235.36,78.77A19.05,19.05,0,0,1,208.49,78.77Z"/><path class="cls-8" d="M248.11,216.85h0a49.21,49.21,0,0,1,0-69.39l260-260a49.21,49.21,0,0,1,69.39,0h0a49.21,49.21,0,0,1,0,69.39l-260,260A49.21,49.21,0,0,1,248.11,216.85Z"/><path class="cls-9" d="M622.55,86.32h0a31.91,31.91,0,0,1,0-45l98.68-98.68a31.91,31.91,0,0,1,45,0h0a31.91,31.91,0,0,1,0,45L667.54,86.32A31.91,31.91,0,0,1,622.55,86.32Z"/><path class="cls-10" d="M385,255.66h0a31.91,31.91,0,0,1,0-45L455.63,140a31.91,31.91,0,0,1,45,0h0a31.91,31.91,0,0,1,0,45L430,255.66A31.91,31.91,0,0,1,385,255.66Z"/><path class="cls-10" d="M690.59,218.94h0a31.91,31.91,0,0,1,0-45l70.64-70.64a31.91,31.91,0,0,1,45,0h0a31.91,31.91,0,0,1,0,45l-70.64,70.64A31.91,31.91,0,0,1,690.59,218.94Z"/><path class="cls-11" d="M412.08,329h0a19.05,19.05,0,0,1,0-26.87L580.86,133.34a19.05,19.05,0,0,1,26.87,0h0a19.05,19.05,0,0,1,0,26.87L438.94,329A19.05,19.05,0,0,1,412.08,329Z"/><path class="cls-6" d="M356.92,192.07h0a49.21,49.21,0,0,1,0-69.39l260-260a49.21,49.21,0,0,1,69.39,0h0a49.21,49.21,0,0,1,0,69.39l-260,260A49.21,49.21,0,0,1,356.92,192.07Z"/><path class="cls-8" d="M523.36,79.25h0a17.4,17.4,0,0,1,0-24.53L749.63-171.54a17.4,17.4,0,0,1,24.53,0h0a17.4,17.4,0,0,1,0,24.53L547.89,79.25A17.4,17.4,0,0,1,523.36,79.25Z"/><path class="cls-11" d="M245.33,81.4h0a12.25,12.25,0,0,1,0-17.28L296.26,13.2a12.25,12.25,0,0,1,17.28,0h0a12.25,12.25,0,0,1,0,17.28L262.6,81.4A12.25,12.25,0,0,1,245.33,81.4Z"/><path class="cls-9" d="M534.38,123.3a7.11,7.11,0,0,0-10,0l-29.57,29.57a7.09,7.09,0,1,0,10,10l29.57-29.57A7.11,7.11,0,0,0,534.38,123.3Z"/><path class="cls-11" d="M487.52,61.92h0a3.73,3.73,0,0,1,0-5.26L753-208.78a3.73,3.73,0,0,1,5.26,0h0a3.73,3.73,0,0,1,0,5.26L492.77,61.92A3.73,3.73,0,0,1,487.52,61.92Z"/><path class="cls-11" d="M555.27,250.6h0a3.73,3.73,0,0,1,0-5.26L820.71-20.1a3.73,3.73,0,0,1,5.26,0h0a3.73,3.73,0,0,1,0,5.26L560.52,250.6A3.73,3.73,0,0,1,555.27,250.6Z"/><path class="cls-11" d="M322.58,233.48h0a3.73,3.73,0,0,1,0-5.26l66-66a3.73,3.73,0,0,1,5.26,0h0a3.73,3.73,0,0,1,0,5.26l-66,66A3.73,3.73,0,0,1,322.58,233.48Z"/><path class="cls-11" d="M128,69.12h0a3.73,3.73,0,0,1,0-5.26l66-66a3.73,3.73,0,0,1,5.26,0h0a3.73,3.73,0,0,1,0,5.26l-66,66A3.73,3.73,0,0,1,128,69.12Z"/><path class="cls-6" d="M587.22,98.65h0a3.73,3.73,0,0,1,0-5.26l66-66a3.73,3.73,0,0,1,5.26,0h0a3.73,3.73,0,0,1,0,5.26l-66,66A3.73,3.73,0,0,1,587.22,98.65Z"/><path class="cls-9" d="M236.73,123.91a6.89,6.89,0,0,0-9.72,0l-28.66,28.66a6.87,6.87,0,0,0,9.72,9.72l28.66-28.66A6.89,6.89,0,0,0,236.73,123.91Z"/><path class="cls-6" d="M437.92-4.7a6.89,6.89,0,0,0-9.72,0L399.54,24a6.87,6.87,0,0,0,9.72,9.72L437.92,5A6.89,6.89,0,0,0,437.92-4.7Z"/><path class="cls-9" d="M660.28,210.52h0a12.25,12.25,0,0,1,0-17.28l50.93-50.93a12.25,12.25,0,0,1,17.28,0h0a12.25,12.25,0,0,1,0,17.28l-50.93,50.93A12.25,12.25,0,0,1,660.28,210.52Z"/><path class="cls-9" d="M434.84,111.4a8.16,8.16,0,0,0-11.5,0l-8.16,8.16a8.13,8.13,0,1,0,11.5,11.5l8.16-8.16A8.16,8.16,0,0,0,434.84,111.4Z"/><path class="cls-8" d="M623.1,123.6a8.16,8.16,0,0,0-11.5,0l-8.16,8.16a8.13,8.13,0,0,0,11.5,11.5l8.16-8.16A8.16,8.16,0,0,0,623.1,123.6Z"/><path class="cls-7" d="M824.72,1085.67h0a8.28,8.28,0,0,1,0-11.68l228.06-228.06a8.28,8.28,0,0,1,11.68,0h0a8.28,8.28,0,0,1,0,11.68L836.4,1085.67A8.28,8.28,0,0,1,824.72,1085.67Z"/><path class="cls-11" d="M847.49,949.34h0a12.25,12.25,0,0,1,0-17.28l50.93-50.93a12.25,12.25,0,0,1,17.28,0h0a12.25,12.25,0,0,1,0,17.28l-50.93,50.93A12.25,12.25,0,0,1,847.49,949.34Z"/><path class="cls-8" d="M678.69,855.24a7.11,7.11,0,0,0-10,0l-29.57,29.57a7.09,7.09,0,0,0,10,10l29.57-29.57A7.11,7.11,0,0,0,678.69,855.24Z"/><path class="cls-6" d="M697.12,1076.77h0a3.73,3.73,0,0,1,0-5.26l66-66a3.73,3.73,0,0,1,5.26,0h0a3.73,3.73,0,0,1,0,5.26l-66,66A3.73,3.73,0,0,1,697.12,1076.77Z"/><path class="cls-9" d="M1162.2,736.87a6.89,6.89,0,0,0-9.72,0l-28.66,28.66a6.87,6.87,0,1,0,9.72,9.72l28.66-28.66A6.89,6.89,0,0,0,1162.2,736.87Z"/><path class="cls-6" d="M656.2,958.69a6.89,6.89,0,0,0-9.72,0l-28.66,28.66a6.87,6.87,0,1,0,9.72,9.72l28.66-28.66A6.89,6.89,0,0,0,656.2,958.69Z"/><path class="cls-7" d="M993.82,758.43a8.16,8.16,0,0,0-11.5,0l-8.16,8.16a8.13,8.13,0,0,0,11.5,11.5l8.16-8.16A8.16,8.16,0,0,0,993.82,758.43Z"/><path class="cls-9" d="M837.14,1010.75a8.16,8.16,0,0,0-11.5,0l-8.16,8.16a8.13,8.13,0,0,0,11.5,11.5l8.16-8.16A8.16,8.16,0,0,0,837.14,1010.75Z"/><path class="cls-6" d="M744.2,911.87h0a3.73,3.73,0,0,1,0-5.26L856.35,794.46a3.73,3.73,0,0,1,5.26,0h0a3.73,3.73,0,0,1,0,5.26L749.46,911.87A3.73,3.73,0,0,1,744.2,911.87Z"/><path class="cls-9" d="M653.12,1074.79a8.16,8.16,0,0,0-11.5,0l-8.16,8.16a8.13,8.13,0,0,0,11.5,11.5l8.16-8.16A8.16,8.16,0,0,0,653.12,1074.79Z"/><path class="cls-7" d="M38,50.62h0a8.28,8.28,0,0,1,0-11.68L266-189.12a8.28,8.28,0,0,1,11.68,0h0a8.28,8.28,0,0,1,0,11.68L49.63,50.62A8.28,8.28,0,0,1,38,50.62Z"/><path class="cls-7" d="M1877.93,760.39h0a8.28,8.28,0,0,1,0-11.68L2106,520.65a8.28,8.28,0,0,1,11.68,0h0a8.28,8.28,0,0,1,0,11.68L1889.61,760.39A8.28,8.28,0,0,1,1877.93,760.39Z"/><path class="cls-11" d="M1900.7,624.06h0a12.25,12.25,0,0,1,0-17.28l50.93-50.93a12.25,12.25,0,0,1,17.28,0h0a12.25,12.25,0,0,1,0,17.28L1918,624.06A12.25,12.25,0,0,1,1900.7,624.06Z"/><path class="cls-8" d="M1759.11,543.13a10.45,10.45,0,0,0-14.51,0L1701.84,585a9.92,9.92,0,0,0,0,14.2,10.45,10.45,0,0,0,14.51,0l42.76-41.85A9.92,9.92,0,0,0,1759.11,543.13Z"/><path class="cls-11" d="M1594.07,871.59h0a3.73,3.73,0,0,1,0-5.26l66-66a3.73,3.73,0,0,1,5.26,0h0a3.73,3.73,0,0,1,0,5.26l-66,66A3.73,3.73,0,0,1,1594.07,871.59Z"/><path class="cls-11" d="M1750.33,751.49h0a3.73,3.73,0,0,1,0-5.26l66-66a3.73,3.73,0,0,1,5.26,0h0a3.73,3.73,0,0,1,0,5.26l-66,66A3.73,3.73,0,0,1,1750.33,751.49Z"/><path class="cls-6" d="M1753.16,647.24a6.89,6.89,0,0,0-9.72,0l-28.66,28.66a6.87,6.87,0,0,0,9.72,9.72L1753.16,657A6.89,6.89,0,0,0,1753.16,647.24Z"/><path class="cls-9" d="M1890.35,685.47a8.16,8.16,0,0,0-11.5,0l-8.16,8.16a8.13,8.13,0,0,0,11.5,11.5l8.16-8.16A8.16,8.16,0,0,0,1890.35,685.47Z"/><path class="cls-6" d="M1797.41,586.6h0a3.73,3.73,0,0,1,0-5.26l112.15-112.15a3.73,3.73,0,0,1,5.26,0h0a3.73,3.73,0,0,1,0,5.26L1802.67,586.6A3.73,3.73,0,0,1,1797.41,586.6Z"/><path class="cls-9" d="M1703.42,741.87a8.16,8.16,0,0,0-11.5,0l-8.16,8.16a8.13,8.13,0,0,0,11.5,11.5l8.16-8.16A8.16,8.16,0,0,0,1703.42,741.87Z"/><path class="cls-9" d="M1765,817.13a8.16,8.16,0,0,0-11.5,0l-8.16,8.16a8.13,8.13,0,0,0,11.5,11.5l8.16-8.16A8.16,8.16,0,0,0,1765,817.13Z"/><path class="cls-7" d="M113.68,754.88h0a8.28,8.28,0,0,1,0,11.68L-114.38,994.63a8.28,8.28,0,0,1-11.68,0h0a8.28,8.28,0,0,1,0-11.68L102,754.88A8.28,8.28,0,0,1,113.68,754.88Z"/><path class="cls-11" d="M90.91,891.21h0a12.25,12.25,0,0,1,0,17.28L40,959.42a12.25,12.25,0,0,1-17.28,0h0a12.25,12.25,0,0,1,0-17.28l50.93-50.93A12.25,12.25,0,0,1,90.91,891.21Z"/><path class="cls-8" d="M232.5,972.15a10.45,10.45,0,0,0,14.51,0l42.77-41.85a9.92,9.92,0,0,0,0-14.2,10.45,10.45,0,0,0-14.51,0L232.5,958A9.92,9.92,0,0,0,232.5,972.15Z"/><path class="cls-11" d="M397.54,643.68h0a3.73,3.73,0,0,1,0,5.26l-66,66a3.73,3.73,0,0,1-5.26,0h0a3.73,3.73,0,0,1,0-5.26l66-66A3.73,3.73,0,0,1,397.54,643.68Z"/><path class="cls-11" d="M241.29,763.78h0a3.73,3.73,0,0,1,0,5.26l-66,66a3.73,3.73,0,0,1-5.26,0h0a3.73,3.73,0,0,1,0-5.26l66-66A3.73,3.73,0,0,1,241.29,763.78Z"/><path class="cls-6" d="M238.46,868a6.89,6.89,0,0,0,9.72,0l28.66-28.66a6.87,6.87,0,1,0-9.72-9.72l-28.66,28.66A6.89,6.89,0,0,0,238.46,868Z"/><path class="cls-9" d="M101.27,829.8a8.16,8.16,0,0,0,11.5,0l8.16-8.16a8.13,8.13,0,0,0-11.5-11.5l-8.16,8.16A8.16,8.16,0,0,0,101.27,829.8Z"/><path class="cls-6" d="M194.2,928.68h0a3.73,3.73,0,0,1,0,5.26L82.05,1046.09a3.73,3.73,0,0,1-5.26,0h0a3.73,3.73,0,0,1,0-5.26L188.95,928.68A3.73,3.73,0,0,1,194.2,928.68Z"/><path class="cls-9" d="M288.2,773.41a8.16,8.16,0,0,0,11.5,0l8.16-8.16a8.13,8.13,0,0,0-11.5-11.5l-8.16,8.16A8.16,8.16,0,0,0,288.2,773.41Z"/><path class="cls-9" d="M226.62,698.14a8.16,8.16,0,0,0,11.5,0l8.16-8.16a8.13,8.13,0,0,0-11.5-11.5l-8.16,8.16A8.16,8.16,0,0,0,226.62,698.14Z"/><path class="cls-7" d="M1886.43,146.67h0a8.28,8.28,0,0,1,0-11.68L2114.5-93.07a8.28,8.28,0,0,1,11.68,0h0a8.28,8.28,0,0,1,0,11.68L1898.12,146.67A8.28,8.28,0,0,1,1886.43,146.67Z"/><path class="cls-11" d="M1909.2,10.34h0a12.25,12.25,0,0,1,0-17.28l50.93-50.93a12.25,12.25,0,0,1,17.28,0h0a12.25,12.25,0,0,1,0,17.28l-50.93,50.93A12.25,12.25,0,0,1,1909.2,10.34Z"/><path class="cls-11" d="M1602.57,257.88h0a3.73,3.73,0,0,1,0-5.26l66-66a3.73,3.73,0,0,1,5.26,0h0a3.73,3.73,0,0,1,0,5.26l-66,66A3.73,3.73,0,0,1,1602.57,257.88Z"/><path class="cls-11" d="M1758.83,137.77h0a3.73,3.73,0,0,1,0-5.26l66-66a3.73,3.73,0,0,1,5.26,0h0a3.73,3.73,0,0,1,0,5.26l-66,66A3.73,3.73,0,0,1,1758.83,137.77Z"/><path class="cls-6" d="M1761.66,33.52a6.89,6.89,0,0,0-9.72,0l-28.66,28.66A6.87,6.87,0,1,0,1733,71.9l28.66-28.66A6.89,6.89,0,0,0,1761.66,33.52Z"/><path class="cls-9" d="M1898.85,71.75a8.16,8.16,0,0,0-11.5,0l-8.16,8.16a8.13,8.13,0,1,0,11.5,11.5l8.16-8.16A8.16,8.16,0,0,0,1898.85,71.75Z"/><path class="cls-9" d="M1711.92,128.15a8.16,8.16,0,0,0-11.5,0l-8.16,8.16a8.13,8.13,0,0,0,11.5,11.5l8.16-8.16A8.16,8.16,0,0,0,1711.92,128.15Z"/><path class="cls-9" d="M1773.49,203.41a8.16,8.16,0,0,0-11.5,0l-8.16,8.16a8.13,8.13,0,0,0,11.5,11.5l8.16-8.16A8.16,8.16,0,0,0,1773.49,203.41Z"/><path class="cls-7" d="M1122.13,94.28h0a8.28,8.28,0,0,1,0-11.68l228.06-228.06a8.28,8.28,0,0,1,11.68,0h0a8.28,8.28,0,0,1,0,11.68L1133.81,94.28A8.28,8.28,0,0,1,1122.13,94.28Z"/><path class="cls-7" d="M943.37,264.45h0a8.28,8.28,0,0,1,0-11.68l51.45-51.45a8.28,8.28,0,0,1,11.68,0h0a8.28,8.28,0,0,1,0,11.68L955,264.45A8.28,8.28,0,0,1,943.37,264.45Z"/><path class="cls-11" d="M838.26,205.48h0a3.73,3.73,0,0,1,0-5.26l66-66a3.73,3.73,0,0,1,5.26,0h0a3.73,3.73,0,0,1,0,5.26l-66,66A3.73,3.73,0,0,1,838.26,205.48Z"/><path class="cls-6" d="M994.52,85.38h0a3.73,3.73,0,0,1,0-5.26l66-66a3.73,3.73,0,0,1,5.26,0h0a3.73,3.73,0,0,1,0,5.26l-66,66A3.73,3.73,0,0,1,994.52,85.38Z"/><path class="cls-6" d="M953.61-32.71a6.89,6.89,0,0,0-9.72,0L915.23-4a6.89,6.89,0,0,0,0,9.72,6.89,6.89,0,0,0,9.72,0L953.61-23A6.89,6.89,0,0,0,953.61-32.71Z"/><path class="cls-9" d="M1134.54,19.36a8.16,8.16,0,0,0-11.5,0l-8.16,8.16a8.13,8.13,0,0,0,11.5,11.5l8.16-8.16A8.16,8.16,0,0,0,1134.54,19.36Z"/><path class="cls-9" d="M950.52,83.39a8.16,8.16,0,0,0-11.5,0l-8.16,8.16a8.13,8.13,0,0,0,11.5,11.5l8.16-8.16A8.16,8.16,0,0,0,950.52,83.39Z"/><path class="cls-8" d="M1030.4,110.33a8.16,8.16,0,0,0-11.5,0l-8.16,8.16a8.13,8.13,0,0,0,11.5,11.5l8.16-8.16A8.16,8.16,0,0,0,1030.4,110.33Z"/><path class="cls-8" d="M1822.9,850.88a7.11,7.11,0,0,0-10,0l-29.57,29.57a7.09,7.09,0,0,0,10,10l29.57-29.57A7.11,7.11,0,0,0,1822.9,850.88Z"/><path class="cls-6" d="M1841.33,1072.41h0a3.73,3.73,0,0,1,0-5.26l66-66a3.73,3.73,0,0,1,5.26,0h0a3.73,3.73,0,0,1,0,5.26l-66,66A3.73,3.73,0,0,1,1841.33,1072.41Z"/><path class="cls-6" d="M1800.42,954.33a6.89,6.89,0,0,0-9.72,0L1762,983a6.87,6.87,0,0,0,9.72,9.72l28.66-28.66A6.89,6.89,0,0,0,1800.42,954.33Z"/><path class="cls-6" d="M1888.42,907.52h0a3.73,3.73,0,0,1,0-5.26l112.15-112.15a3.73,3.73,0,0,1,5.26,0h0a3.73,3.73,0,0,1,0,5.26L1893.67,907.52A3.73,3.73,0,0,1,1888.42,907.52Z"/><path class="cls-9" d="M1797.33,1070.43a8.16,8.16,0,0,0-11.5,0l-8.16,8.16a8.13,8.13,0,1,0,11.5,11.5l8.16-8.16A8.16,8.16,0,0,0,1797.33,1070.43Z"/><path class="cls-11" d="M1385.14,104.18h0a12.25,12.25,0,0,1,0,17.28l-50.93,50.93a12.25,12.25,0,0,1-17.28,0h0a12.25,12.25,0,0,1,0-17.28l50.93-50.93A12.25,12.25,0,0,1,1385.14,104.18Z"/><path class="cls-8" d="M1557.59,207.54a7.11,7.11,0,0,0,10,0L1597.19,178a7.09,7.09,0,0,0-10-10l-29.57,29.57A7.11,7.11,0,0,0,1557.59,207.54Z"/><path class="cls-6" d="M1532.23-37.39h0a3.73,3.73,0,0,1,0,5.26l-66,66a3.73,3.73,0,0,1-5.26,0h0a3.73,3.73,0,0,1,0-5.26l66-66A3.73,3.73,0,0,1,1532.23-37.39Z"/><path class="cls-9" d="M1216.31,169a6.89,6.89,0,0,0,9.72,0l28.66-28.66a6.87,6.87,0,0,0-9.72-9.72l-28.66,28.66A6.89,6.89,0,0,0,1216.31,169Z"/><path class="cls-6" d="M1580.07,104.09a6.89,6.89,0,0,0,9.72,0l28.66-28.66a6.87,6.87,0,0,0-9.72-9.72l-28.66,28.66A6.89,6.89,0,0,0,1580.07,104.09Z"/><text></text><path class="cls-9" d="M1329,7a8.16,8.16,0,0,0,11.5,0l8.16-8.16a8.16,8.16,0,0,0,0-11.5,8.16,8.16,0,0,0-11.5,0L1329-4.49A8.16,8.16,0,0,0,1329,7Z"/><path class="cls-6" d="M1492.07,150.91h0a3.73,3.73,0,0,1,0,5.26L1379.92,268.31a3.73,3.73,0,0,1-5.26,0h0a3.73,3.73,0,0,1,0-5.26l112.15-112.15A3.73,3.73,0,0,1,1492.07,150.91Z"/><path class="cls-11" d="M236.06,1072.11h0a12.25,12.25,0,0,1,0,17.28l-50.93,50.93a12.25,12.25,0,0,1-17.28,0h0a12.25,12.25,0,0,1,0-17.28l50.93-50.93A12.25,12.25,0,0,1,236.06,1072.11Z"/><path class="cls-11" d="M546.33,833.84h0a3.73,3.73,0,0,1,0,5.26l-66,66a3.73,3.73,0,0,1-5.26,0h0a3.73,3.73,0,0,1,0-5.26l66-66A3.73,3.73,0,0,1,546.33,833.84Z"/><path class="cls-6" d="M383.15,930.55h0a3.73,3.73,0,0,1,0,5.26l-66,66a3.73,3.73,0,0,1-5.26,0h0a3.73,3.73,0,0,1,0-5.26l66-66A3.73,3.73,0,0,1,383.15,930.55Z"/><path class="cls-6" d="M431,1072a6.89,6.89,0,0,0,9.72,0l28.66-28.66a6.87,6.87,0,0,0-9.72-9.72L431,1062.3A6.89,6.89,0,0,0,431,1072Z"/><path class="cls-9" d="M179.92,974.95a8.16,8.16,0,0,0,11.5,0l8.16-8.16a8.13,8.13,0,0,0-11.5-11.5l-8.16,8.16A8.16,8.16,0,0,0,179.92,974.95Z"/><path class="cls-9" d="M434.07,955.92a8.16,8.16,0,0,0,11.5,0l8.16-8.16a8.13,8.13,0,1,0-11.5-11.5l-8.16,8.16A8.16,8.16,0,0,0,434.07,955.92Z"/><path class="cls-8" d="M334.24,871.77a8.16,8.16,0,0,0,11.5,0l8.16-8.16a8.13,8.13,0,0,0-11.5-11.5l-8.16,8.16A8.16,8.16,0,0,0,334.24,871.77Z"/></g><rect class="cls-1" x="1" y="23.55" width="1920" height="1080"/></g></svg>